<svg width="102" height="33" viewBox="0 0 102 33" fill="none" xmlns="http://www.w3.org/2000/svg">
<g clip-path="url(#clip0_744_7979)">
<path d="M9.14579 24.8433C10.8198 25.3599 12.6514 24.5879 13.2347 23.1193L19.82 6.68097C20.4091 5.21243 19.5284 3.60458 17.8601 3.08798C16.1861 2.57138 14.3546 3.34338 13.7713 4.81192L7.18593 21.2503C6.59681 22.7188 7.47758 24.3267 9.14579 24.8433Z" fill="#9A79F2"/>
<path d="M21.1813 20.7441C20.593 22.4072 21.471 24.23 23.1423 24.8154C24.8136 25.4007 26.6453 24.527 27.2335 22.8638L33.8176 4.2479C34.4059 2.58475 33.5279 0.761971 31.8566 0.176609C30.1853 -0.408752 28.3536 0.464969 27.7654 2.12812L21.1813 20.7441Z" fill="#9A79F2"/>
<path d="M6.23698 2.13301C5.64875 0.469862 3.81705 -0.403859 2.14576 0.181503C0.474476 0.766865 -0.40352 2.58964 0.184706 4.2528L6.76882 22.8687C7.35704 24.5319 9.18874 25.4056 10.86 24.8202C12.5313 24.2349 13.4093 22.4121 12.8211 20.749L6.23698 2.13301Z" fill="#7034F3"/>
<path d="M24.8538 24.8433C23.1798 25.3599 21.3482 24.5879 20.7649 23.1193L14.1796 6.68097C13.5905 5.21243 14.4712 3.60458 16.1394 3.08798C17.8135 2.57138 19.645 3.34338 20.2283 4.81192L26.8137 21.2503C27.4028 22.7188 26.522 24.3267 24.8538 24.8433Z" fill="#7034F3"/>
<path d="M3.11462 4.66682C4.08104 4.66682 4.86449 3.88719 4.86449 2.92546C4.86449 1.96374 4.08104 1.18411 3.11462 1.18411C2.14819 1.18411 1.36475 1.96374 1.36475 2.92546C1.36475 3.88719 2.14819 4.66682 3.11462 4.66682Z" fill="white"/>
<path d="M30.8851 4.66682C31.8516 4.66682 32.635 3.88719 32.635 2.92546C32.635 1.96374 31.8516 1.18411 30.8851 1.18411C29.9187 1.18411 29.1353 1.96374 29.1353 2.92546C29.1353 3.88719 29.9187 4.66682 30.8851 4.66682Z" fill="white"/>
</g>
<path d="M91.7405 32.05C91.2213 32.05 90.7919 31.9102 90.4524 31.6306C90.1129 31.351 89.9132 30.9816 89.8533 30.5223C89.7934 30.0829 89.8733 29.6136 90.0929 29.1143L92.1 24.6809V26.5382L86.7978 14.3761C86.5981 13.8569 86.5282 13.3776 86.5881 12.9383C86.668 12.479 86.8877 12.1195 87.2471 11.8599C87.6266 11.5803 88.1458 11.4405 88.8048 11.4405C89.344 11.4405 89.7734 11.5703 90.0929 11.8299C90.4324 12.0696 90.742 12.5389 91.0216 13.2378L94.5563 22.2245H93.5977L97.2523 13.2079C97.5319 12.5289 97.8415 12.0696 98.181 11.8299C98.5404 11.5703 99.0197 11.4405 99.6188 11.4405C100.138 11.4405 100.547 11.5803 100.847 11.8599C101.167 12.1195 101.356 12.469 101.416 12.9083C101.496 13.3477 101.416 13.827 101.177 14.3462L94.137 30.3126C93.8374 30.9916 93.4979 31.4509 93.1185 31.6905C92.759 31.9302 92.2997 32.05 91.7405 32.05Z" fill="#222222"/>
<path d="M75.1646 26.7179C73.8865 26.7179 72.7582 26.4083 71.7796 25.7892C70.821 25.1702 70.0721 24.2815 69.5329 23.1232C68.9937 21.9649 68.7241 20.5969 68.7241 19.0193C68.7241 17.4416 68.9937 16.0836 69.5329 14.9453C70.0721 13.807 70.821 12.9283 71.7796 12.3092C72.7582 11.6901 73.8865 11.3806 75.1646 11.3806C76.3229 11.3806 77.3414 11.6601 78.2201 12.2193C79.1187 12.7785 79.7278 13.5074 80.0474 14.4061H79.7179V7.30659C79.7179 6.54771 79.9076 5.97855 80.287 5.59911C80.6665 5.1997 81.2256 5 81.9645 5C82.6835 5 83.2426 5.1997 83.6421 5.59911C84.0415 5.97855 84.2412 6.54771 84.2412 7.30659V24.3514C84.2412 25.0903 84.0415 25.6594 83.6421 26.0588C83.2626 26.4583 82.7134 26.658 81.9945 26.658C81.2756 26.658 80.7164 26.4583 80.317 26.0588C79.9375 25.6594 79.7478 25.0903 79.7478 24.3514V22.3144L80.0773 23.4827C79.7977 24.4612 79.1986 25.25 78.28 25.8492C77.3813 26.4283 76.3429 26.7179 75.1646 26.7179ZM76.5126 23.3329C77.1716 23.3329 77.7408 23.1731 78.2201 22.8536C78.6994 22.5341 79.0788 22.0648 79.3584 21.4457C79.638 20.8066 79.7778 19.9978 79.7778 19.0193C79.7778 17.5614 79.4782 16.493 78.8791 15.814C78.28 15.115 77.4911 14.7656 76.5126 14.7656C75.8735 14.7656 75.3044 14.9153 74.8051 15.2149C74.3258 15.5144 73.9464 15.9838 73.6668 16.6228C73.4072 17.2419 73.2774 18.0407 73.2774 19.0193C73.2774 20.4771 73.5769 21.5655 74.1761 22.2844C74.7752 22.9834 75.554 23.3329 76.5126 23.3329Z" fill="#222222"/>
<path d="M56.8809 26.7179C55.6028 26.7179 54.4745 26.4083 53.4959 25.7892C52.5373 25.1702 51.7884 24.2815 51.2492 23.1232C50.71 21.9649 50.4404 20.5969 50.4404 19.0193C50.4404 17.4416 50.71 16.0836 51.2492 14.9453C51.7884 13.807 52.5373 12.9283 53.4959 12.3092C54.4745 11.6901 55.6028 11.3806 56.8809 11.3806C58.0392 11.3806 59.0577 11.6601 59.9364 12.2193C60.8351 12.7785 61.4441 13.5074 61.7637 14.4061H61.4342V7.30659C61.4342 6.54771 61.6239 5.97855 62.0033 5.59911C62.3828 5.1997 62.9419 5 63.6808 5C64.3998 5 64.959 5.1997 65.3584 5.59911C65.7578 5.97855 65.9575 6.54771 65.9575 7.30659V24.3514C65.9575 25.0903 65.7578 25.6594 65.3584 26.0588C64.9789 26.4583 64.4297 26.658 63.7108 26.658C62.9919 26.658 62.4327 26.4583 62.0333 26.0588C61.6538 25.6594 61.4641 25.0903 61.4641 24.3514V22.3144L61.7936 23.4827C61.514 24.4612 60.9149 25.25 59.9963 25.8492C59.0976 26.4283 58.0592 26.7179 56.8809 26.7179ZM58.2289 23.3329C58.8879 23.3329 59.4571 23.1731 59.9364 22.8536C60.4157 22.5341 60.7951 22.0648 61.0747 21.4457C61.3543 20.8066 61.4941 19.9978 61.4941 19.0193C61.4941 17.5614 61.1945 16.493 60.5954 15.814C59.9963 15.115 59.2075 14.7656 58.2289 14.7656C57.5899 14.7656 57.0207 14.9153 56.5214 15.2149C56.0421 15.5144 55.6627 15.9838 55.3831 16.6228C55.1235 17.2419 54.9937 18.0407 54.9937 19.0193C54.9937 20.4771 55.2932 21.5655 55.8924 22.2844C56.4915 22.9834 57.2703 23.3329 58.2289 23.3329Z" fill="#222222"/>
<path d="M42.3576 26.7179C40.6202 26.7179 39.1224 26.4083 37.8643 25.7892C36.6261 25.1502 35.6675 24.2615 34.9885 23.1232C34.3295 21.9649 34 20.6069 34 19.0492C34 17.5315 34.3195 16.2034 34.9586 15.0651C35.5976 13.9068 36.4863 13.0081 37.6246 12.3691C38.7829 11.7101 40.091 11.3806 41.5488 11.3806C42.6073 11.3806 43.5658 11.5603 44.4246 11.9198C45.2833 12.2593 46.0222 12.7585 46.6413 13.4175C47.2604 14.0566 47.7297 14.8454 48.0492 15.784C48.3687 16.7027 48.5285 17.7312 48.5285 18.8695C48.5285 19.2489 48.4087 19.5385 48.169 19.7382C47.9294 19.9179 47.5799 20.0078 47.1206 20.0078H37.7145V17.6712H45.2633L44.784 18.0906C44.784 17.2718 44.6642 16.5928 44.4246 16.0536C44.1849 15.4945 43.8354 15.0751 43.3761 14.7955C42.9368 14.5159 42.3876 14.3761 41.7286 14.3761C40.9897 14.3761 40.3606 14.5459 39.8414 14.8854C39.3221 15.2249 38.9227 15.7141 38.6431 16.3532C38.3635 16.9923 38.2238 17.7611 38.2238 18.6598V18.8994C38.2238 20.4172 38.5732 21.5355 39.2722 22.2545C39.9911 22.9734 41.0496 23.3329 42.4475 23.3329C42.9268 23.3329 43.476 23.273 44.0951 23.1531C44.7141 23.0333 45.2933 22.8436 45.8325 22.584C46.2918 22.3643 46.7012 22.2944 47.0607 22.3743C47.4201 22.4342 47.6997 22.594 47.8994 22.8536C48.0991 23.1132 48.209 23.4128 48.2289 23.7523C48.2689 24.0918 48.199 24.4312 48.0193 24.7707C47.8395 25.0903 47.54 25.3599 47.1206 25.5795C46.4416 25.959 45.6727 26.2386 44.814 26.4183C43.9752 26.618 43.1565 26.7179 42.3576 26.7179Z" fill="#222222"/>
<defs>
<clipPath id="clip0_744_7979">
<rect width="34" height="25" fill="white"/>
</clipPath>
</defs>
</svg>
