<svg width="34" height="25" viewBox="0 0 34 25" fill="none" xmlns="http://www.w3.org/2000/svg">
<g clip-path="url(#clip0_744_7954)">
<path d="M9.14579 24.8433C10.8198 25.3599 12.6514 24.5879 13.2347 23.1193L19.82 6.68097C20.4091 5.21243 19.5284 3.60458 17.8601 3.08798C16.1861 2.57138 14.3546 3.34338 13.7713 4.81192L7.18593 21.2503C6.59681 22.7188 7.47758 24.3267 9.14579 24.8433Z" fill="#9A79F2"/>
<path d="M21.1813 20.7441C20.593 22.4072 21.471 24.23 23.1423 24.8154C24.8136 25.4007 26.6453 24.527 27.2335 22.8638L33.8176 4.2479C34.4059 2.58475 33.5279 0.761971 31.8566 0.176609C30.1853 -0.408752 28.3536 0.464969 27.7654 2.12812L21.1813 20.7441Z" fill="#9A79F2"/>
<path d="M6.23698 2.13301C5.64875 0.469862 3.81705 -0.403859 2.14576 0.181503C0.474476 0.766865 -0.40352 2.58964 0.184706 4.2528L6.76882 22.8687C7.35704 24.5319 9.18874 25.4056 10.86 24.8202C12.5313 24.2349 13.4093 22.4121 12.8211 20.749L6.23698 2.13301Z" fill="#7034F3"/>
<path d="M24.8538 24.8433C23.1798 25.3599 21.3482 24.5879 20.7649 23.1193L14.1796 6.68097C13.5905 5.21243 14.4712 3.60458 16.1394 3.08798C17.8135 2.57138 19.645 3.34338 20.2283 4.81192L26.8137 21.2503C27.4028 22.7188 26.522 24.3267 24.8538 24.8433Z" fill="#7034F3"/>
<path d="M3.11462 4.66682C4.08104 4.66682 4.86449 3.88719 4.86449 2.92546C4.86449 1.96374 4.08104 1.18411 3.11462 1.18411C2.14819 1.18411 1.36475 1.96374 1.36475 2.92546C1.36475 3.88719 2.14819 4.66682 3.11462 4.66682Z" fill="white"/>
<path d="M30.8851 4.66682C31.8516 4.66682 32.635 3.88719 32.635 2.92546C32.635 1.96374 31.8516 1.18411 30.8851 1.18411C29.9187 1.18411 29.1353 1.96374 29.1353 2.92546C29.1353 3.88719 29.9187 4.66682 30.8851 4.66682Z" fill="white"/>
</g>
<defs>
<clipPath id="clip0_744_7954">
<rect width="34" height="25" fill="white"/>
</clipPath>
</defs>
</svg>
