<svg width="19" height="19" viewBox="0 0 19 19" fill="none" xmlns="http://www.w3.org/2000/svg">
<g id="_&#229;&#175;&#131;&#226;&#145;&#184;&#226;&#148;&#129;_&#239;&#167;&#143;&#226;&#145;&#164;&#235;&#177;&#182;" clip-path="url(#clip0_2110_4568)">
<path id="Vector" d="M2.80082 2.69974L3.12021 2.38034C3.72829 2.07937 4.36709 1.75998 5.00588 1.53886C5.47883 1.37302 5.91492 1.35459 6.27117 1.78455C6.83011 2.46633 7.22936 3.6395 7.76987 4.37656C7.94185 4.7451 7.88043 5.22419 7.59175 5.51287C7.18636 5.91826 6.80554 5.85684 6.51072 6.56933C6.1729 7.41082 6.61514 8.02504 7.1188 8.65155C7.96028 9.71415 9.03517 10.8013 10.0793 11.6612C10.7427 12.214 11.4552 12.8528 12.3765 12.5334C13.1443 12.2693 13.0706 11.8885 13.4883 11.4463C13.7831 11.1391 14.2622 11.0777 14.643 11.2497C15.2818 11.5322 16.2216 12.128 16.8358 12.5089C17.3272 12.816 17.7203 13.0862 17.5667 13.7434C17.45 14.2532 16.7989 15.7765 16.4427 16.1082C15.6258 16.876 14.1823 16.7101 13.1935 16.4337C8.95532 15.2176 3.73444 10.009 2.56127 5.75242C2.34015 4.94165 2.22345 3.86676 2.58584 3.0867L2.79468 2.70588L2.80082 2.69974Z" fill="#F8F7F9"/>
</g>
<defs>
<clipPath id="clip0_2110_4568">
<rect width="19.1275" height="7.07074" fill="white" transform="translate(13.5251 19.0254) rotate(-135)"/>
</clipPath>
</defs>
</svg>
