<svg width="19" height="20" viewBox="0 0 19 20" fill="none" xmlns="http://www.w3.org/2000/svg">
<g id="Layer_1" clip-path="url(#clip0_61_22)">
<path id="Vector" d="M17.0009 20L1.888 20C0.844047 20 0 19.1328 0 18.0653L0 4.51576C0 3.446 0.846269 2.58109 1.888 2.58109L16.9987 2.58109C18.0426 2.58109 18.8867 3.44828 18.8867 4.51576L18.8867 18.0653C18.8867 19.1351 18.0404 20 16.9987 20H17.0009Z" fill="#CCD6E1"/>
<path id="Vector_2" d="M1.888 2.58109L16.9987 2.58109C18.0404 2.58109 18.8867 3.44828 18.8867 4.51576V8.38739L0 8.38739L0 4.51576C0 3.44828 0.846269 2.58109 1.888 2.58109Z" fill="#ABBAC9"/>
<path id="Vector_3" d="M13.5358 5.16217C13.0138 5.16217 12.5918 4.74565 12.5918 4.23125V0.930921C12.5918 0.416524 13.0138 0 13.5358 0C14.0578 0 14.4798 0.416524 14.4798 0.930921V4.23125C14.4798 4.74565 14.0578 5.16217 13.5358 5.16217Z" fill="#CCD6E1"/>
<path id="Vector_4" d="M5.35074 5.16217C4.82876 5.16217 4.40674 4.74565 4.40674 4.23125L4.40674 0.930921C4.40674 0.416524 4.82876 0 5.35074 0C5.87272 0 6.29474 0.416524 6.29474 0.930921L6.29474 4.23125C6.29474 4.74565 5.87272 5.16217 5.35074 5.16217Z" fill="#CCD6E1"/>
</g>
<defs>
<clipPath id="clip0_61_22">
<rect width="18.8889" height="20" fill="white"/>
</clipPath>
</defs>
</svg>
