<svg width="20" height="20" viewBox="0 0 20 20" fill="none" xmlns="http://www.w3.org/2000/svg">
<g id="Frame 1214">
<path id="Subtract" fill-rule="evenodd" clip-rule="evenodd" d="M6.23054 4C6.23054 2.89543 7.12597 2 8.23054 2H11.769C12.8736 2 13.769 2.89543 13.769 4V5.23075H16C16.5523 5.23075 17 5.67846 17 6.23075V6.38459C17 6.93688 16.5523 7.38459 16 7.38459H15.8462V15.7692C15.8462 16.8738 14.9507 17.7692 13.8462 17.7692H6C4.89543 17.7692 4 16.8738 4 15.7692L4 7.38459C3.44772 7.38459 3 6.93688 3 6.38459V6.23075C3 5.67846 3.44772 5.23075 4 5.23075H6.23054V4ZM12.6922 5.23075H7.30755V4.07694C7.30755 3.52465 7.75526 3.07693 8.30755 3.07693H11.6922C12.2444 3.07693 12.6922 3.52465 12.6922 4.07694V5.23075ZM7.30776 10.0769C7.30776 9.77951 7.54883 9.53843 7.84622 9.53843C8.1436 9.53843 8.38468 9.77951 8.38468 10.0769V14.3846C8.38468 14.682 8.1436 14.923 7.84622 14.923C7.54883 14.923 7.30776 14.682 7.30776 14.3846V10.0769ZM12.154 9.53843C11.8566 9.53843 11.6155 9.77951 11.6155 10.0769V14.3846C11.6155 14.682 11.8566 14.923 12.154 14.923C12.4514 14.923 12.6924 14.682 12.6924 14.3846V10.0769C12.6924 9.77951 12.4514 9.53843 12.154 9.53843Z" fill="#F14459"/>
</g>
</svg>
