<svg width="20" height="21" viewBox="0 0 20 21" fill="none" xmlns="http://www.w3.org/2000/svg">
<g id="Frame 1356">
<path id="Subtract" fill-rule="evenodd" clip-rule="evenodd" d="M4 4.5C2.89543 4.5 2 5.39543 2 6.5V14.5C2 15.6046 2.89543 16.5 4 16.5H16C17.1046 16.5 18 15.6046 18 14.5V6.5C18 5.39543 17.1046 4.5 16 4.5H4ZM16.3354 8.17098C16.7059 7.98574 16.8561 7.53524 16.6708 7.16475C16.4856 6.79427 16.0351 6.6441 15.6646 6.82934L9.98838 9.66745C9.08294 9.24482 7.85651 8.66379 6.77648 8.13397C6.16744 7.83519 5.60993 7.55513 5.18428 7.33003C4.97088 7.21717 4.79667 7.1213 4.66811 7.04575C4.58085 6.99446 4.53422 6.96367 4.51462 6.95073C4.50693 6.94566 4.5034 6.94333 4.50321 6.94358C4.50304 6.94379 4.50528 6.94587 4.50943 6.94972L4.51029 6.95052C4.20675 6.66872 3.73224 6.68631 3.45041 6.98983C3.16856 7.29336 3.18613 7.76791 3.48966 8.04976C3.60514 8.15699 3.77586 8.26124 3.90809 8.33895C4.0644 8.43081 4.26086 8.53852 4.48303 8.65601C4.92854 8.89162 5.50179 9.17942 6.11584 9.48065C7.34524 10.0838 8.75807 10.7504 9.68417 11.1804C9.89136 11.2766 10.1311 11.2731 10.3354 11.171L16.3354 8.17098Z" fill="#F8F7F9"/>
</g>
</svg>
