<svg width="20" height="20" viewBox="0 0 20 20" fill="none" xmlns="http://www.w3.org/2000/svg">
<g id="Group 18">
<path id="Rectangle 48" d="M2.9775 12.1869C2.98799 12.0702 3.03911 11.9609 3.12194 11.8781L11.8687 3.13134C12.0639 2.93608 12.3805 2.93608 12.5758 3.13134L16.8687 7.42423C17.0639 7.61949 17.0639 7.93608 16.8687 8.13134L8.12194 16.8781C8.0391 16.9609 7.92982 17.012 7.81314 17.0225L3.09636 17.4464C2.78578 17.4743 2.5257 17.2143 2.55361 16.9037L2.9775 12.1869Z" fill="#756D80"/>
<rect id="Rectangle 49" x="15" width="7.07106" height="2.74986" rx="0.5" transform="rotate(45 15 0)" fill="#756D80"/>
<path id="Vector 52 (Stroke)" fill-rule="evenodd" clip-rule="evenodd" d="M11.25 16.875C11.25 16.5298 11.476 16.25 11.7548 16.25H19.4952C19.774 16.25 20 16.5298 20 16.875C20 17.2202 19.774 17.5 19.4952 17.5H11.7548C11.476 17.5 11.25 17.2202 11.25 16.875Z" fill="#756D80"/>
</g>
</svg>
