<svg width="16" height="16" viewBox="0 0 16 16" fill="none" xmlns="http://www.w3.org/2000/svg">
<g id="Layer_1" clip-path="url(#clip0_61_29)">
<path id="Vector" d="M3.20028 8.79937H12.7997C14.5664 8.79937 16 10.233 16 11.9996V14.7992C16 15.461 15.4624 15.9986 14.8006 15.9986H1.1994C0.537614 15.9986 0 15.461 0 14.7992V11.9996C0 10.233 1.43364 8.79937 3.20028 8.79937Z" fill="#CCD6E1"/>
<path id="Vector_2" d="M7.99927 7.19922C9.98728 7.19922 11.5989 5.58762 11.5989 3.59961C11.5989 1.6116 9.98728 0 7.99927 0C6.01126 0 4.39966 1.6116 4.39966 3.59961C4.39966 5.58762 6.01126 7.19922 7.99927 7.19922Z" fill="#CCD6E1"/>
</g>
<defs>
<clipPath id="clip0_61_29">
<rect width="16" height="16" fill="white"/>
</clipPath>
</defs>
</svg>
