<svg width="20" height="20" viewBox="0 0 20 20" fill="none" xmlns="http://www.w3.org/2000/svg">
<g id="Rename Icon">
<path id="Rectangle 48" d="M3.37876 12.7856C3.38924 12.6689 3.44036 12.5596 3.5232 12.4768L10.4242 5.57579C10.6195 5.38052 10.9361 5.38052 11.1313 5.57579L14.4242 8.86867C14.6195 9.06394 14.6195 9.38052 14.4242 9.57578L7.52319 16.4768C7.44036 16.5596 7.33107 16.6108 7.2144 16.6212L3.59635 16.9464C3.28577 16.9743 3.02569 16.7142 3.0536 16.4037L3.37876 12.7856Z" fill="#6D6D80"/>
<rect id="Rectangle 49" x="13" y="3" width="5.65685" height="2.19989" rx="0.5" transform="rotate(45 13 3)" fill="#6D6D80"/>
<path id="Vector 52 (Stroke)" fill-rule="evenodd" clip-rule="evenodd" d="M10 16.5C10 16.2239 10.1808 16 10.4038 16H16.5962C16.8192 16 17 16.2239 17 16.5C17 16.7761 16.8192 17 16.5962 17H10.4038C10.1808 17 10 16.7761 10 16.5Z" fill="#6D6D80"/>
</g>
</svg>
